# Blender v2.79 (sub 0) OBJ File: 'Meja.blend'
# www.blender.org
mtllib lantai.mtl
o Stütze
v 1.189579 0.594790 -2.020117
v 1.189579 0.832706 -2.020116
v -1.189579 0.832706 -2.020116
v -1.189579 0.594790 -2.020117
v 1.189579 0.594790 -2.258032
v 1.189579 0.832706 -2.258032
v -1.189579 0.594790 -2.258032
v -1.189579 0.832706 -2.258032
vn 0.0000 -0.0000 1.0000
vn 1.0000 -0.0000 0.0000
vn 0.0000 0.0000 -1.0000
vn -1.0000 0.0000 0.0000
vn 0.0000 1.0000 0.0000
vn 0.0000 -1.0000 0.0000
usemtl Mat.1
s 1
f 1//1 2//1 3//1 4//1
f 5//2 6//2 2//2 1//2
f 7//3 8//3 6//3 5//3
f 4//4 3//4 8//4 7//4
f 2//5 6//5 8//5 3//5
f 5//6 1//6 4//6 7//6
o Bein_3
v 1.427495 -1.189579 -2.022285
v 1.427495 1.189580 -2.022285
v 1.189579 1.189580 -2.022285
v 1.189579 -1.189579 -2.022285
v 1.427495 -1.189579 -2.260201
v 1.427495 1.189580 -2.260201
v 1.189579 -1.189579 -2.260201
v 1.189579 1.189580 -2.260201
vn 0.0000 -0.0000 1.0000
vn 1.0000 -0.0000 0.0000
vn 0.0000 0.0000 -1.0000
vn -1.0000 0.0000 0.0000
vn 0.0000 1.0000 0.0000
vn 0.0000 -1.0000 0.0000
usemtl Material.001
s 1
f 9//7 10//7 11//7 12//7
f 13//8 14//8 10//8 9//8
f 15//9 16//9 14//9 13//9
f 12//10 11//10 16//10 15//10
f 10//11 14//11 16//11 11//11
f 13//12 9//12 12//12 15//12
o Bein_1
v 1.427495 -1.189580 2.260201
v 1.427495 1.189579 2.260201
v 1.189579 1.189579 2.260201
v 1.189579 -1.189580 2.260201
v 1.427495 -1.189580 2.022285
v 1.427495 1.189579 2.022285
v 1.189579 -1.189580 2.022285
v 1.189579 1.189579 2.022285
vn 0.0000 -0.0000 1.0000
vn 1.0000 -0.0000 0.0000
vn 0.0000 0.0000 -1.0000
vn -1.0000 0.0000 0.0000
vn 0.0000 1.0000 0.0000
vn 0.0000 -1.0000 0.0000
usemtl Material.001
s 1
f 17//13 18//13 19//13 20//13
f 21//14 22//14 18//14 17//14
f 23//15 24//15 22//15 21//15
f 20//16 19//16 24//16 23//16
f 18//17 22//17 24//17 19//17
f 21//18 17//18 20//18 23//18
o Bein
v -1.189579 -1.189580 2.260201
v -1.189579 1.189579 2.260201
v -1.427495 1.189579 2.260201
v -1.427495 -1.189580 2.260201
v -1.189579 -1.189580 2.022285
v -1.189579 1.189579 2.022285
v -1.427495 -1.189580 2.022285
v -1.427495 1.189579 2.022285
vn 0.0000 -0.0000 1.0000
vn 1.0000 -0.0000 0.0000
vn 0.0000 0.0000 -1.0000
vn -1.0000 0.0000 0.0000
vn 0.0000 1.0000 0.0000
vn 0.0000 -1.0000 0.0000
usemtl Material.001
s 1
f 25//19 26//19 27//19 28//19
f 29//20 30//20 26//20 25//20
f 31//21 32//21 30//21 29//21
f 28//22 27//22 32//22 31//22
f 26//23 30//23 32//23 27//23
f 29//24 25//24 28//24 31//24
o Stütze_1
v 1.189579 0.594789 2.246260
v 1.189579 0.832705 2.246260
v -1.189579 0.832705 2.246260
v -1.189579 0.594789 2.246260
v 1.189579 0.594789 2.008344
v 1.189579 0.832705 2.008344
v -1.189579 0.594789 2.008344
v -1.189579 0.832705 2.008344
vn 0.0000 -0.0000 1.0000
vn 1.0000 -0.0000 0.0000
vn 0.0000 0.0000 -1.0000
vn -1.0000 0.0000 0.0000
vn 0.0000 1.0000 0.0000
vn 0.0000 -1.0000 -0.0000
usemtl Mat.1
s 1
f 33//25 34//25 35//25 36//25
f 37//26 38//26 34//26 33//26
f 39//27 40//27 38//27 37//27
f 36//28 35//28 40//28 39//28
f 34//29 38//29 40//29 35//29
f 37//30 33//30 36//30 39//30
o Bein_2
v -1.189579 -1.189579 -2.022285
v -1.189579 1.189580 -2.022285
v -1.427495 1.189580 -2.022285
v -1.427495 -1.189579 -2.022285
v -1.189579 -1.189579 -2.260201
v -1.189579 1.189580 -2.260201
v -1.427495 -1.189579 -2.260201
v -1.427495 1.189580 -2.260201
vn 0.0000 -0.0000 1.0000
vn 1.0000 -0.0000 0.0000
vn 0.0000 0.0000 -1.0000
vn -1.0000 0.0000 0.0000
vn 0.0000 1.0000 0.0000
vn 0.0000 -1.0000 0.0000
usemtl Material.001
s 1
f 41//31 42//31 43//31 44//31
f 45//32 46//32 42//32 41//32
f 47//33 48//33 46//33 45//33
f 44//34 43//34 48//34 47//34
f 42//35 46//35 48//35 43//35
f 45//36 41//36 44//36 47//36
o Platte
v 1.665411 1.130518 2.617075
v 1.665411 1.249476 2.617075
v -1.665411 1.249476 2.617075
v -1.665411 1.130518 2.617075
v -1.665411 1.130519 -2.617075
v -1.665411 1.249477 -2.617075
v 1.665411 1.249477 -2.617075
v 1.665411 1.130519 -2.617075
vn 0.0000 0.0000 1.0000
vn 0.0000 0.0000 -1.0000
vn 0.0000 1.0000 0.0000
vn 0.0000 -1.0000 -0.0000
vn 1.0000 0.0000 0.0000
vn -1.0000 0.0000 0.0000
usemtl Material.001
s 1
f 49//37 50//37 51//37 52//37
f 53//38 54//38 55//38 56//38
f 50//39 55//39 54//39 51//39
f 56//40 49//40 52//40 53//40
f 56//41 55//41 50//41 49//41
f 52//42 51//42 54//42 53//42
